<?xml version="1.0" encoding="utf-8"?>
<!-- Svg Vector Icons : http://www.onlinewebfonts.com/icon -->
<!DOCTYPE svg PUBLIC "-//W3C//DTD SVG 1.1//EN" "http://www.w3.org/Graphics/SVG/1.1/DTD/svg11.dtd">
<svg version="1.1" xmlns="http://www.w3.org/2000/svg" xmlns:xlink="http://www.w3.org/1999/xlink" x="0px" y="0px" viewBox="0 0 1000 1000" enable-background="new 0 0 1000 1000" xml:space="preserve">
<g><path d="M500,9.9c-270.6,0-490,219.4-490,490s219.3,490.1,490,490.1s490-219.4,490-490C990,229.5,770.6,9.9,500,9.9z M956.4,500.1c0,61.7-12,121.4-35.8,177.7c-23,54.3-55.9,103.2-97.8,145c-42,42-90.7,74.8-145,97.8c-56.2,23.8-116,35.8-177.7,35.8c-61.7,0-121.4-12-177.7-35.8c-54.3-23-103.2-55.9-145-97.8c-42-42-74.8-90.7-97.8-145c-23.8-56.2-35.8-116-35.8-177.7c0-61.7,12.1-121.4,35.8-177.7c23-54.3,55.9-103.2,97.8-145c42-41.8,90.7-74.8,145-97.8c56.3-23.8,116-35.9,177.7-35.9c61.7,0,121.4,12.1,177.7,35.8c54.3,23,103.2,55.9,145,97.8c41.8,42,74.8,90.7,97.8,145C944.3,378.6,956.4,438.4,956.4,500.1z M500,122.1c-208.7,0-377.9,169.2-377.9,377.9C122.1,708.7,291.3,878,500,878c208.7,0,377.9-169.3,377.9-377.9C877.9,291.4,708.7,122.1,500,122.1z"/></g>
</svg>